PathFileType	4	(X/Y/Z)	c:/Users/goper/Files/vsCode/490R/osim_files/C15/C15_Fast_07.trc
DataRate	CameraRate	NumFrames	NumMarkers	Units                	OrigDataRate	OrigDataStartFrame	OrigNumFrames
250.00	250.00	5	36	mm	250.0	1266	2531
                Frame#	Time	LPSIS			LASIS			LTH1			LTH2			LTH3			LTH4			LLFE			LMFE			LSH1			LSH2			LSH3			LSH4			LLMAL			LMMAL			LCAL			LMTP5			LTOE			LMTP1			RPSIS			RASIS			RTH1			RTH2			RTH3			RTH4			RLFE			RMFE			RSH1			RSH2			RSH3			RSH4			RLMAL			RMMAL			RCAL			RMTP1			RTOE			RMTP5		
		X1	Y1	Z1	X2	Y2	Z2	X3	Y3	Z3	X4	Y4	Z4	X5	Y5	Z5	X6	Y6	Z6	X7	Y7	Z7	X8	Y8	Z8	X9	Y9	Z9	X10	Y10	Z10	X11	Y11	Z11	X12	Y12	Z12	X13	Y13	Z13	X14	Y14	Z14	X15	Y15	Z15	X16	Y16	Z16	X17	Y17	Z17	X18	Y18	Z18	X19	Y19	Z19	X20	Y20	Z20	X21	Y21	Z21	X22	Y22	Z22	X23	Y23	Z23	X24	Y24	Z24	X25	Y25	Z25	X26	Y26	Z26	X27	Y27	Z27	X28	Y28	Z28	X29	Y29	Z29	X30	Y30	Z30	X31	Y31	Z31	X32	Y32	Z32	X33	Y33	Z33	X34	Y34	Z34	X35	Y35	Z35	X36	Y36	Z36

1266	5.06000	564.96082	1019.32648	301.40482	402.23532	995.11212	372.95035	496.39496	596.40802	414.93591	500.03589	552.50378	398.79120	448.50204	606.36609	410.76254	449.94958	561.96753	400.62830	494.09622	481.60721	379.27460	490.36240	469.70847	262.05875	569.25159	380.07550	388.11218	578.71960	337.61307	392.05261	510.76154	366.16800	386.34726	526.38342	324.55713	389.06332	608.74799	79.80607	318.71054	589.26514	106.06943	229.30571	672.95880	58.69870	274.51065	491.89984	33.31959	339.91119	435.35410	54.28882	276.37927	475.74094	28.64976	219.57773	558.89368	1016.15662	180.72392	400.62149	993.93097	122.71489	323.42477	646.50476	57.29145	303.30142	606.06915	65.43170	269.80017	671.63434	71.96784	254.33861	626.42987	76.07777	261.65854	527.35571	96.37949	268.29611	505.55667	212.77988	351.77274	432.34814	76.88717	356.61990	389.58627	71.58370	289.16528	417.56030	72.42094	304.98856	378.35187	65.43977	368.17010	118.29740	110.98966	325.59592	132.90387	193.72260	426.05017	99.13681	165.09033	226.88196	51.99067	178.27795	195.44269	70.71428	122.81631	266.16718	45.06637	67.40741
1267	5.06400	560.68982	1019.01343	301.03308	398.19366	994.61493	373.03253	494.13409	596.19476	414.97006	498.01773	552.41858	398.92798	446.25256	606.10675	410.87848	447.82104	561.63861	400.64423	492.36835	481.34921	379.35651	488.62201	469.44400	262.10196	568.14960	380.20819	388.11484	577.73450	337.74747	392.00259	509.72308	366.02002	386.46915	525.47534	324.43997	389.08755	608.63318	79.98550	318.60901	589.04498	106.18163	229.24168	672.88116	58.86843	274.45593	491.88614	33.30487	339.93274	435.09225	53.98960	276.51193	475.78302	28.70145	219.52126	554.25977	1015.72095	180.31931	395.32617	993.52533	123.04683	319.14270	645.83197	57.64052	298.72925	605.54413	66.01577	265.49777	670.91992	72.38347	249.74115	625.34692	76.62741	257.30243	526.83014	96.74718	263.98322	504.84610	212.95299	345.28427	429.38248	76.62148	348.99484	386.51315	71.21237	282.45218	416.50699	72.24577	297.56149	376.79733	65.16808	352.69608	114.87858	110.33533	310.56631	130.51147	193.09619	409.98389	94.06895	164.35181	209.66949	52.37099	177.66486	178.47322	72.07297	121.85480	248.66013	44.74328	66.79340
1268	5.06800	556.38257	1018.61267	300.60764	394.06018	994.16827	373.07608	494.24719	597.43109	416.20639	495.99747	552.31128	399.02094	443.94989	605.81793	410.88602	445.69131	561.18188	400.68655	490.36569	480.83841	379.24750	486.73172	469.13181	262.23550	566.99811	380.29874	388.07199	576.85535	337.94751	391.94806	508.57230	365.77249	386.48657	524.55432	324.35483	389.15244	608.49146	80.17987	318.51749	588.82672	106.29245	229.17487	672.77954	59.04555	274.38699	491.88708	33.27757	339.91898	435.05032	53.91822	276.52893	475.76553	28.70674	219.53922	549.57422	1015.32141	179.97423	391.02521	992.97449	122.75429	315.01263	645.06659	58.00557	294.56119	604.72815	66.52971	261.36096	670.13684	72.82967	245.71373	624.46960	77.10538	253.13290	526.22168	97.16116	259.78256	503.98331	213.00661	338.96848	426.46588	76.30029	341.33704	383.47357	70.82909	275.33969	414.94305	72.48767	289.72821	375.21991	64.99193	336.93274	111.55962	109.74737	296.09009	128.85638	192.87523	393.84564	89.25079	163.63663	192.71982	52.99205	177.18254	161.73582	73.75085	121.49823	230.88060	45.18940	66.31631
1269	5.07200	552.07990	1018.21259	300.21283	390.00131	993.59149	373.11362	490.88159	596.53479	415.57153	493.79813	552.09186	399.03543	442.17676	605.87183	411.12717	443.52829	560.72430	400.61945	489.07269	480.92429	379.55933	485.41058	468.74411	261.93533	565.83508	380.39169	388.04669	575.85950	338.02692	391.93033	507.90640	366.20300	386.55563	523.74969	324.27463	389.25439	608.36487	80.37177	318.43530	588.60431	106.42214	229.10858	672.72150	59.21671	274.32080	491.86810	33.24666	339.92432	435.25433	54.10290	276.44757	475.70792	28.70989	219.56004	544.94000	1014.89923	179.57883	385.79373	992.46753	122.72295	310.88797	644.26721	58.44362	290.59625	603.95679	66.93837	257.13452	669.29602	73.11860	241.96634	623.85742	77.45178	249.04730	525.53967	97.52890	255.87004	502.96240	213.13177	332.57199	423.43817	75.96635	333.80188	380.45660	70.38894	269.13620	414.19714	72.09114	281.86804	373.77368	64.76032	321.31113	108.53391	109.05883	280.64615	126.58358	192.09764	377.72076	84.71064	162.99109	175.23299	54.06336	176.69553	145.36354	76.23275	120.94151	213.39819	45.40314	65.89095
1270	5.07600	547.76965	1017.76984	299.80289	386.21024	993.48029	373.21506	488.52661	596.32800	415.62741	491.70071	552.01709	399.13297	439.19739	605.05518	410.95123	441.33551	560.28546	400.59027	487.39825	480.73026	379.68643	483.68997	468.54379	262.09589	564.57825	380.42389	387.96271	574.85779	338.14780	391.89539	506.68939	365.91748	386.56082	522.73254	324.21359	389.32312	608.23505	80.55442	318.36404	588.34674	106.56112	229.03561	672.62500	59.40237	274.23361	491.85687	33.22780	339.95563	435.64859	54.25057	276.06509	475.93900	28.88316	219.25743	540.15833	1014.36609	179.20178	381.11230	991.93109	122.84773	306.90753	643.34772	58.89262	286.67819	602.94208	67.55750	253.37375	668.57764	73.48491	238.15739	622.74756	77.89228	245.12315	524.77911	97.83431	252.05632	501.87341	213.20844	326.38022	420.46643	75.62918	326.13586	377.41650	70.05957	262.29852	412.65430	72.19215	274.14981	372.30533	64.55605	305.62341	105.86885	108.52219	266.19177	125.34292	192.02530	361.34451	80.38912	162.28172	158.17894	55.41509	176.33704	129.66605	78.08294	120.75834	195.85863	45.90591	65.47907
